<svg width="16" height="16" fill="none" xmlns="http://www.w3.org/2000/svg"><path d="M8 8a2 2 0 1 0 0-4 2 2 0 0 0 0 4Z" fill="currentColor"/><path fill-rule="evenodd" clip-rule="evenodd" d="M8 0a6 6 0 0 0-5.885 7.17c.237 1.19.88 2.23 1.616 3.044a23.086 23.086 0 0 1 2.791 3.784c.282.483.48.872.606 1.136a8.997 8.997 0 0 1 .166.372l.007.015v.002a.75.75 0 0 0 1.417-.056l.005-.015.023-.068c.022-.064.058-.162.11-.291a11.8 11.8 0 0 1 .525-1.116c.505-.95 1.344-2.272 2.672-3.72.68-.743 1.584-1.843 1.832-3.086A6 6 0 0 0 8 0Zm.056 13.273-.105.202A24.58 24.58 0 0 0 4.845 9.21c-.614-.682-1.09-1.485-1.259-2.333a4.5 4.5 0 1 1 8.828 0c-.158.794-.786 1.623-1.467 2.365-1.422 1.552-2.333 2.98-2.89 4.03Z" fill="currentColor"/></svg>